<svg xmlns="http://www.w3.org/2000/svg" xmlns:xlink="http://www.w3.org/1999/xlink" viewBox="0 0 250.95 137.69" xmlns:v="https://vecta.io/nano"><path d="M220 69.26c-4.56 8.13-11.62 14.41-19.85 19.66-15.08 9.61-32.43 14.78-50.6 18a190 190 0 0 1-24.27 2.81c-4.34.22-8.68.44-13 .44-1.62 0-2.21.52-2.21 1.85l.15 20.1a5.75 5.75 0 0 1-1.54.15c-17.65-.37-34.93-2.36-51.7-7.09-9-2.51-17.72-5.39-25.67-10l.07-19.36c.07-1.92-.81-3-2.65-4.07-7.57-4.14-14.49-8.79-19.63-15.15-3.46-4.29-6.55-8.79-7.72-14-.15-.67-.22-1.26-1.18-1.26-1-11.23 2.28-21.28 11-30 9.85-9.83 22.28-16.41 36.18-21.06 35.3-11.82 71.48-13.15 108.25-5.91 18.46 3.62 35.67 9.76 50.15 20.47 12.21 9.09 19.56 20.1 18 34.44-1.21 3.33-2.02 6.73-3.78 9.98zM38.49 84.78c14.27 8.5 30.37 13 47.43 15.3 27.94 3.7 55.38 2 81.85-7.24 12.06-4.21 22.94-10 31.11-18.92 3.9-4.29 7-9 7.5-14.56 1.62-5.91.22-11.6-2.87-16.85-5.15-8.87-13.6-15.08-23.46-19.95-15.3-7.61-32.06-11.45-49.64-13.15-23.83-2.29-47.14-.37-69.71 6.58-11.4 3.55-22.06 8.42-30.74 15.74-11.33 9.53-17 21.8-10 35.32a4.75 4.75 0 0 0 1.77 2.44c3.76 6.5 9.94 11.23 16.76 15.29z" fill="#6b757d"/><path d="M223.75 59.29c-1.18 3.33-2 6.73-3.82 10-4.56 8.13-11.62 14.41-19.86 19.66-15.07 9.61-32.43 14.78-50.59 18a190 190 0 0 1-24.27 2.81c-4.34.22-8.68.44-13 .44-1.62 0-2.21.52-2.21 1.85l.15 20.1a201.6 201.6 0 0 0 58-7.39c14.19-4.07 27.5-9.68 38.61-18.33s18-18.84 17.28-32.07c-.29-5.02-.22-10.05-.29-15.07zM31.22 115.3l.07-19.36c.07-1.92-.81-3-2.65-4.06C21.07 87.74 14.15 83.09 9 76.73c-3.46-4.29-6.54-8.79-7.72-14-.13-.66-.21-1.26-1.16-1.26 0 5.54-.15 11.16.07 16.7.29 8.5 4.12 16 10.44 22.46a69.73 69.73 0 0 0 20.59 14.67z" fill="#3f4243"/><g fill="#f1f1f3"><use xlink:href="#B"/><use xlink:href="#B"/></g><g fill="#dadcde"><path d="M21.81 69.41c1.91-1.63.44-3.62.44-5.25-.15-5.32 1.62-10 4.71-14.41 7.65-10.86 19.34-17.29 32.72-22.17 12.13-4.43 24.93-6.73 38-8.2 3.6-.44 7.28.07 10.81-.74 2-.44 1.76.89 1.62 1.77-.73 3.92-1.69 7.76-2.28 11.68s-2.35 8-2.13 12.12l3.09 1.18c4.41 1.63 9.19 2.44 13.38 4.51a7.66 7.66 0 0 1 2.87 1.55l10.22 7.09c.22-.81.88-.81 1.69-.89l18.9-1.11 24.63-1.77v-.83l-53.83-2.88 21.55-14.12c-.15-.15-.22-.37-.37-.52l-11.84 4.73-14.86 6.06c-1.1.44-1.91.3-2.28-1l-6.76-24.39c-.81-3.1.07-3.77 4-3.55 11 .52 21.91 1 32.58 3.33a155.55 155.55 0 0 1 24.48 7.34 75.58 75.58 0 0 1 21.69 12.86 33.62 33.62 0 0 1 10.65 15.56c.22.67 0 1.48.88 1.92 1.62-5.91.22-11.6-2.87-16.85-5.15-8.87-13.6-15.08-23.46-20-15.3-7.61-32.06-11.45-49.64-13.15-23.83-2.29-47.14-.37-69.71 6.58-11.4 3.55-22.06 8.43-30.74 15.74-11.33 9.53-17 21.8-10 35.32.54.94.83 1.9 1.86 2.49z"/><path d="M121.97 49.94c-4.19-2.07-9-3-13.38-4.51l-3.09-1.18c-8.31-2-16.25-4.95-24.34-7.39l-17.58-5.54c-1-.3-2.06-.89-3.31-.59-.37.81.81.89 1 1.48l15.59 10.86c4.34 3.1 9 5.91 12.94 9.39l9.19 6.13a5.91 5.91 0 0 0 3.82 1.48c1.25-.74 2.5-1.4 3.75-2.14-3.09-2.66-2.5-4.73 1.69-6a14.22 14.22 0 0 1 9.41.59c1.52-.84 2.91-1.73 4.31-2.58zm41.18 29.6c-12.5-3.4-24.56-7.69-36.92-11.38l-8.24-2.44c.29 1.4.22 2.29-2 1.63-3.38-1-6.62-2.44-10.15-3 .15 4.36 2.13 8.35 3 12.56s2.21 8.05 3.31 12.05a14 14 0 0 0 1 2c1.84-3.47 1.69-6.72 2.5-9.76.88-3.62 1.62-7.24 2.28-10.86.29-1.63 1-2 2.79-1.4l44.72 14.19c0-1.48-1.18-1.92-2.21-2.29-1.33-.49-.52-.9-.08-1.3z"/><path d="M89.83 52.41c-4-3.47-8.6-6.28-12.94-9.39L61.3 32.16c-1.18.59-2.28.89-.37 2.22 8 5.4 15.89 11 23.75 16.55.59.37 1.47.74 1.25 1.4-.29.89-1.4.52-2.13.52-11.32-.07-22.5 1.55-33.75 2.07a110.71 110.71 0 0 0-11.11 1l9.85.67 27.65 1.26c5.15.37 10.37.3 15.52.89a16.65 16.65 0 0 0 3.38-.15l-8.09-6c.97-.1 1.78-.1 2.58-.18zm6.48 6.36c-.44 1.77-2.21 2.66-3.75 3.7L76.68 72.59a1.34 1.34 0 0 0-.51 1c9-3.25 17.8-6.65 26.4-10.49-2.81-.78-3.76-3.37-6.26-4.33z"/></g><path d="M96.31 58.77c2.5 1 3.46 3.55 6.25 4.21 1.47-.22 2.72 0 3.31 1.4 3.6.52 6.84 1.92 10.15 3 2.21.66 2.28-.22 2-1.63-4.41-2.14-9.41-3-14.05-4.73-.51-.22-1.25-.15-1.18-1a5.87 5.87 0 0 1-3.82-1.48c-3-2.07-6.1-4.06-9.19-6.13-.81.07-1.62.07-2.65.15l8.09 6c.42.06.72.14 1.09.21z" fill="#6b757d"/><path d="M211.34 53.49a119 119 0 0 1 8.2 12.3c1 1.82 2.24 5.67 4 6.74 3.3 1.93 6.17-1.82 4.9-4.82-4.26-10.38-9.37-19.8-14.8-29.64-.74 1.71-3.09 4.92-3 6.74.27 2.79.49 5.68.7 8.68z" fill="#3c5770"/><path d="M228.8 113.73a5.11 5.11 0 0 0 2.77 8.45c3.41.75 5.75 3.21 9 4.28 2.13.64 10.75 1 7.88-3.53-1.28-2-4.58-3.21-6.6-4.39-1.06-.64-3.94-2.35-4.15-3.53s-.53-5.24-1.38-5.89c-1-.86-5-.43-6.28-.54s-1.13 4.08-1.24 5.15zm-15.97 8.99c-1.49 3.85.53 12.2 4.37 14 2 1 5 1.5 6.92.11 1.81-1.18-.43-5.24-1.17-6.74-1.49-3.21-2.77-5.46-3-8.88-.21-2.78-4.68-2.46-7.13-3l.01 4.51z"/><g fill="#2a3d4f"><path d="M190.36 85.94c5.22 5.14 11.5 9.52 17.46 13.7 2.13 1.5 1.28 5.78 1.6 8.45.53 4.07 1.28 8 2 12.09.64 3.21 1.07 4.92 4.68 5 1 0 4.58-.21 4.58-1.82l-.75-22a25.52 25.52 0 0 0-.74-6.31 107.27 107.27 0 0 0-7.88-10.59c-3.41-4.07-7-6.53-11.5-9.1-.74-.43-2.34-1.82-3.09-1.28l-4.68 3.85c-2.55 2.1-1.68 4.66-1.68 8.01z"/><path d="M203.57 81.63c4 4 11.93 4.28 17.14 5.89a34.36 34.36 0 0 1 4.26 1.5c2 1 1.6 1.28 1.49 3.32a101.72 101.72 0 0 0 .11 11.45c.21 2.57-.21 9 1.7 10.91 1.7 1.82 5.11 1.71 7.24 1.18 3.51-.75 2.13-4.28 2.24-7.06.11-4.17.43-8.45.64-12.63.32-5.24 1.17-10.7-2.56-15-4.79-5.56-13.2-7.81-19.8-10.38-1.6-.64-8-2.78-8.84 0l-3.62 10.82z"/></g><path d="M209.32 78.21c-1.28 3.1-5.54.64-7.67.11-4.15-1.18-6.92.86-8.3 4.82-.21.64-1 5.67-2 5-3-1.5-4.58-6.1-4.9-9.1a171.09 171.09 0 0 1-1-18.08 58.44 58.44 0 0 1 1-13c1.07-4.28 5.22-7.92 8.63-10.49 1.7-1.28 4.9-4.17 7.13-4l7.67.64c5.43.43 5.86 9.31 5.11 13.69-.53 3.42-1.28 6.85-2.13 10.27-.85 3.21-4.26 8-.64 10.49 1 .64 4.58 1.07 2.66 2.46a13.05 13.05 0 0 0-5.54 7.07c2.42-6.95-.13.12-.02.12z" fill="#3c5770"/><path d="M205.38 42.15l-7.77-.75 10.44 23.54c4.15-8 5.43-16.8 2.24-25.47-1.72.86-3.32 1.82-4.91 2.68z" fill="#e6e6e6"/><path d="M205.16 42.36c-.53 3.53 1.07 5.35 1.38 8.88.43 4.82.32 9.31 1.6 13.91.53-1.28 1.6-2.78 1.92-4.17-.43-3.85-1.07-7.7-1.81-11.56-.32-1.48.43-8.66-3.09-7.06z" fill="#f04d54"/><path d="M202.39 32.41c-2.45 1.6-4.79 2.46-5.22 5.56-.53 4.71 3.62 7.7 6.18 11 .85-1.82 1.6-3.64 2.45-5.46.21-.32 4.37 1.18 5 1.28l-1-9.2c-.17-1.15-6.13-2.65-7.41-3.18z" fill="#fff"/><g fill="#2a3d4f"><path d="M199.63 34.34c-5.54 3.53 1.28 11.56 3.3 15.19 2.66 4.92 5.32 10.81 5.32 16.48a69.51 69.51 0 0 0-7-12.95 38.1 38.1 0 0 0-3.2-4.07c-.85-.86 0-1.71.53-2.78-1.81.21-2 .75-3-1.18a12.53 12.53 0 0 1-1.17-7.38c.85-1.17 3.94-2.46 5.22-3.31z"/><path d="M207.19 34.12c3.09 3.64 3.41 10.06 3.62 14.55.21 5.46 0 11.88-2.77 16.69 6-6.21 6.18-16 5.75-24.18-.21-1.28-1.39-.11-.85-1.82.32-.75-1-1.93-1.38-2.57-1.61-2.35-1.5-2.77-4.37-2.67z"/></g><g fill="#f9b194"><path d="M206.97 42.94c-2.77 2.57-6.39-1.93-6.92-4.39-.74-3.1 1.17-5.24 2.24-7.92l5.75 4.17c2.13 1.61.85 6.42-1.07 8.14 1.28-1.22-.42.38 0 0z"/><path d="M206.49 43.33c-4.79 1.18-4.47-6.53-3.94-9.1l5.11 2.78c1.7.96.43 5.35-1.17 6.32 1.76-1.07-2.39.53 0 0z" opacity=".5"/><path d="M202.29 32.2a12.32 12.32 0 0 0 .43 5.89c.64 1.5 4.58 6.53 6.71 4.07a26.2 26.2 0 0 0 4.9-11.45c.75-4.92-2.45-9.84-8-9.1-3.51.53-8.41 8.33-4.04 10.59z"/></g><path d="M200.8 31.45l2.24 2.67c1.81-4 3.73-1.5 7.24-1.28 3.94.21 6.39-2.46 4.47-6.31-1.92-3.64-7-6.53-10.86-4.17-3.2 1.92-3.4 5.77-3.09 9.09z"/><path d="M202.29 29.31c-1.6-1.82-2.34 2.57-1.07 3.53 1.92 1.39 1.92-2.46 1.07-3.53.53.63-.32-.32 0 0z" fill="#f9b194"/><path d="M243.28 80.45l-21.61 12.73c-2.77 1.6-3.73 0-6.6-1.71-1.49-.86-9.9-4.6-9.9-6.31 0-1.39 6.82-4.17 8-4.82l13.1-7.38c3-1.71 3.2-.75 6.39 1.07 3.49 2.25 7 4.28 10.62 6.42z" fill="#191919"/><path d="M243.28 79.7L222.2 92.22c-3 1.82-3.19.86-6.39-1l-10.65-6.31 21.08-12.52c3-1.82 3.2-.86 6.39 1l10.65 6.31z" fill="#4d4d4e"/><g fill="#fff"><use xlink:href="#C"/><use xlink:href="#D"/><use xlink:href="#E"/><use xlink:href="#F"/><use xlink:href="#F" x="-1.81" y="1.07"/><path d="M231.04 85.48c-.85.86-1.81 1.07-2.66.21.85-.85 1.8-1.06 2.66-.21zm-1.71.97c-.85.86-1.81 1.07-2.66.21a1.77 1.77 0 0 1 2.66-.21zm-1.84 1.07c-.85.86-1.81 1.07-2.66.21.88-.86 1.84-1.07 2.66-.21zm-1.67 1.07c-.85.86-1.81 1.07-2.66.21a1.7 1.7 0 0 1 2.66-.21z"/><use xlink:href="#E" x="-12.24" y="7.28"/><use xlink:href="#D" x="-15.75" y="9.31"/><use xlink:href="#F" x="3.19" y="-4.28"/><path d="M235.93 80.13c-.85.86-1.81 1.07-2.66.21.85-.96 1.92-1.06 2.66-.21zm-1.7.97c-.85.86-1.81 1.07-2.66.21.85-.86 1.81-1.07 2.66-.21zm-1.74 1.07c-.85.86-1.81 1.07-2.66.21a1.7 1.7 0 0 1 2.66-.21z"/><use xlink:href="#E" x="-5.53" y="0.86"/><use xlink:href="#D" x="-9.05" y="2.89"/><use xlink:href="#C" x="-12.57" y="5.03"/><path d="M225.49 86.34c-.85.86-1.81 1.07-2.66.21a1.64 1.64 0 0 1 2.66-.21z"/><use xlink:href="#G"/><use xlink:href="#D" x="-16.07" y="7.06"/><path d="M220.18 89.44c-.85.86-1.81 1.07-2.66.21.85-.85 1.8-1.06 2.66-.21z"/><use xlink:href="#E" x="0.24" y="-4.07"/><path d="M234.66 79.28c-.85.86-1.81 1.07-2.66.21.85-.86 1.8-1.07 2.66-.21zm-1.71 1.07c-.85.86-1.81 1.07-2.66.21a1.7 1.7 0 0 1 2.66-.21z"/><use xlink:href="#E" x="-5.11" y="-0.96"/><use xlink:href="#D" x="-8.57" y="1.07"/><use xlink:href="#C" x="-12.14" y="3.21"/><use xlink:href="#D" x="-12.13" y="3.21"/><use xlink:href="#G" x="0.43" y="-1.82"/><path d="M222.41 86.55c-.85.86-1.81 1.07-2.66.21.85-.82 1.81-1.06 2.66-.21zm-1.81 1.07c-.85.86-1.81 1.07-2.66.21.85-.89 1.81-1.06 2.66-.21z"/><use xlink:href="#C" x="-4.69" y="-2.78"/><use xlink:href="#D" x="-4.68" y="-2.78"/><use xlink:href="#E" x="-4.68" y="-2.78"/><use xlink:href="#D" x="-8.19" y="-0.75"/><path d="M228.06 81.63c-.85.86-1.81 1.07-2.66.21.85-.85 1.8-1.07 2.66-.21zm-1.71 1.07c-.85.86-1.81 1.07-2.66.21.85-.85 1.8-1.07 2.66-.21z"/><use xlink:href="#G" x="0.85" y="-3.64"/><use xlink:href="#F" x="-11.71" y="1.39"/><use xlink:href="#D" x="-16.93" y="4.49"/><path d="M218.9 88.69a7.74 7.74 0 0 1-1.28-.75c.64-.21 1.17-.86 1.7-1.07-1.28-1.39-3.09.54-4.37 1.28 1.39.79 2.54 2.04 3.95.54zm12.67-10.7l2.24-1.28c-1.28-1.39-3.09.54-4.36 1.28a1.28 1.28 0 0 0 2.12 0z"/><use xlink:href="#G" x="6.6" y="-8.56"/><path d="M228.49 79.81c-.85.86-1.81 1.07-2.66.21.84-.85 1.8-1.08 2.66-.21z"/><use xlink:href="#F" x="-7.77" y="-2.46"/><use xlink:href="#G" x="1.38" y="-5.46"/><path d="M223.26 82.94c-.85.86-1.81 1.07-2.66.21.89-.88 1.81-1.09 2.66-.21z"/><use xlink:href="#D" x="-16.5" y="2.63"/><path d="M219.75 85.05c-.85.86-1.81 1.07-2.66.21a1.66 1.66 0 0 1 2.66-.21zm-3.19 1.89a15.49 15.49 0 0 0 1.49-.86c-1.28-1.28-3.19.54-4.37 1.28.81.9 1.92.37 2.88-.42zm15.86-11c-.85.86-1.81 1.07-2.66.21.85-.83 1.81-1.05 2.66-.21z"/><use xlink:href="#G" x="7.03" y="-10.36"/><use xlink:href="#D" x="-9.05" y="-3.32"/><path d="M219.43 83.66l7.77-4.6c-1.6-1.71-7.88 3.32-9.69 4.39a1.28 1.28 0 0 0 1.92.21z"/><use xlink:href="#D" x="-19.57" y="2.89"/><use xlink:href="#C" x="-23.11" y="5.03"/><use xlink:href="#E" x="-21.29" y="3.96"/></g><path d="M224.12 78.42l-5.54 3.32c-1.49.86-2.77-.54-4.15-1.39l5.54-3.32c1.52-.86 2.65.53 4.15 1.39z" fill="#333"/><path d="M250.49 64.72l-21 12.52c-5.22 3.1-7 11.13-9.69 16.37l21.61-12.73c2.55-1.5 3.09-3.42 4.58-6.1.8-1.71 5.7-8.45 4.5-10.06z" fill="#191919"/><path d="M250.95 65.26l-21.08 12.52c-5.22 3.1-7 11.13-9.69 16.37l21.08-12.52c5.23-3.1 7.13-11.02 9.69-16.37z" fill="#4d4d4e"/><path d="M209.32 78.21c-3.09 4.6-9.8-3.21-14 1.39a14.34 14.34 0 0 0-3 6.74c-.64 2.89-2.13 1.6-3.51-.43-2.56-3.85-2.66-8.35-3-12.84-.43-6.85-.85-13.8-.21-20.65 0-2.78 6.82-.54 8.63-.21 1.6.21 1.92 5.46 2.66 7.17 1.28 3.1 3.41 6.53 6.71 7.92 2 .86 3.94.21 6-.21 1.28-.21 3.09 2.25 4.79 2.78 1.38.43 1.38.86.11 1.61a11.6 11.6 0 0 0-5.18 6.73z" fill="#2a3d4f" opacity=".3"/><path d="M186.1 66.33c1 6 6.39 8.88 11.07 11.77 4 2.46 9 7.28 12.14 1.18 1.92-3.74-7.67-9-10.22-10.81-1.49-1.07-2.77-1.18-2.77-3s-.21-3.64-.32-5.46c-.21-4.6.85-19.37-6.5-17.33-6.48 3.64-4.46 17.66-3.4 23.65-1.06-6.1.54 3.21 0 0z" fill="#3c5770"/><use xlink:href="#H" fill="#dadcde"/><path d="M206.49 81.52c2.34 1.07 4.15 2.67 7 2.67 1.38.64 2.66 3.53 3.83 3.74s-2-4.17-2-4.28c1.81-1.18 3.09 1.61 4.58 1.82 3.09.64.64-3-.75-3.85 1.38 0 2.45 2.14 3.41 2 1.7-.21-2.13-3.42-2.24-3.53-1.17-.86-3.09-1.07-4.58-1.18-1.81-.11-3.62 0-5.32-.75-1.06-.43-2-1-3.09-.11-.84.8-2.06 2.62-.84 3.47zm17.94-10.27c1 1.6.32 4.07 1.17 6a9.39 9.39 0 0 0 1.17 2.35c1 1.07 2.13.75 1.28-.86-.53-1.07-1.38-3.1.75-2.89 1.6.21 1.7 1.71 1.92 3 .11.64 1.7 3.85 1.6 1.5.32-.86-.43-3-.43-4 .32.54 2.45 5 3.09 4.6s-.64-3.32-.85-4a5 5 0 0 1 1.36 1.99c.32 1.07 2.13 2.35 1.49 1.07 1.17-.75-2-4.17-2.45-4.71a50.78 50.78 0 0 0-4.9-4.6c-.75-.64-1.07-2-2.13-2.25-1.26-.3-3.7 1.3-3.07 2.8z" fill="#f9b194"/><path d="M107.33 58.1a14.85 14.85 0 0 0 9.63.3c3.75-1.18 4.19-3.18 1.47-5.69a14.22 14.22 0 0 0-9.41-.59c-4.19 1.18-4.78 3.32-1.69 5.98z" fill="#f1f1f3"/><use xlink:href="#H" x="0.73" y="-0.01" fill="#3f4243"/><path d="M122.7 50.25c-4.19-2.07-9-3-13.38-4.51l-3.09-1.18c-8.31-2-16.25-5-24.34-7.39l-17.58-5.54c-1-.3-2.06-.89-3.31-.59-.37.81.81.89 1 1.48l15.59 10.86c4.34 3.1 9 5.91 12.94 9.39l9.19 6.13a5.91 5.91 0 0 0 3.82 1.48c1.25-.74 2.5-1.4 3.75-2.14-3.09-2.66-2.5-4.73 1.69-6a14.22 14.22 0 0 1 9.41.59l4.31-2.58z" fill="#e78a24"/><defs ><path id="B" d="M21.81 69.41c3.68 6.58 9.85 11.31 16.68 15.37 14.27 8.5 30.37 13 47.43 15.3 27.94 3.7 55.38 2 81.85-7.24 12.06-4.21 22.94-10 31.11-18.92 3.9-4.29 7-9 7.5-14.56-.88-.44-.66-1.26-.88-1.92a33.62 33.62 0 0 0-10.65-15.5 76.77 76.77 0 0 0-21.69-12.86 157.68 157.68 0 0 0-24.56-7.32c-10.66-2.29-21.62-2.81-32.58-3.33-3.9-.15-4.78.44-4 3.55l6.76 24.39c.37 1.26 1.18 1.4 2.28 1l14.86-6.06c3.9-1.63 7.87-3.18 11.84-4.73.15.15.22.37.37.52l-21.55 14.11 53.83 2.88v.81l-24.63 1.77-18.9 1.11c-.74.07-1.47.07-1.69.89 1.1.81 2.13 1.7 3.24 2.44l25.3 17.74c1.62 1.11-.37.52-.44.81-.44.37-1.25.74 0 1.18 1 .37 2.21.81 2.21 2.29l-44.72-14.19c-1.84-.59-2.5-.22-2.79 1.4-.66 3.62-1.32 7.24-2.28 10.86-.74 3.1-.66 6.36-2.5 9.75a14.49 14.49 0 0 1-1-2c-1.18-4-2.5-8-3.31-12.05s-2.87-8.2-3-12.56c-.59-1.4-1.84-1.63-3.31-1.4-8.6 3.92-17.43 7.24-26.4 10.49a1.24 1.24 0 0 1 .51-1l15.88-10.12c1.55-1 3.31-1.85 3.75-3.69l-1-.22a17.4 17.4 0 0 1-3.38.15c-5.15-.67-10.37-.52-15.52-.89-9.19-.67-18.46-.74-27.65-1.26l-9.85-.67c3.75-.52 7.43-.81 11.1-1 11.25-.52 22.43-2.14 33.75-2.07.74 0 1.84.37 2.13-.52.15-.59-.66-1-1.25-1.4L60.9 34.21c-1.91-1.26-.81-1.63.37-2.22-.15-.59-1.32-.67-1-1.48 1.25-.3 2.28.3 3.31.59l17.57 5.54c8.16 2.44 16 5.39 24.34 7.39-.22-4.14 1.47-8.13 2.13-12.12s1.62-7.76 2.28-11.68c.15-.89.37-2.22-1.62-1.77-3.53.81-7.21.3-10.81.74-13 1.56-25.73 3.77-37.94 8.21-13.31 4.87-25.07 11.38-32.72 22.17a23.82 23.82 0 0 0-4.71 14.41c.15 1.8 1.62 3.8-.29 5.42z"/><path id="C" d="M239.77 80.24c-.85.86-1.81 1.07-2.66.21.85-.85 1.81-1.07 2.66-.21z"/><path id="D" d="M238.06 81.31c-.85.86-1.81 1.07-2.66.21a1.71 1.71 0 0 1 2.66-.21z"/><path id="E" d="M236.25 82.38c-.85.86-1.81 1.07-2.66.21a1.65 1.65 0 0 1 2.66-.21z"/><path id="F" d="M234.55 83.34c-.85.86-1.81 1.07-2.66.21.85-.85 1.81-1.06 2.66-.21z"/><path id="G" d="M223.69 87.3c-.85.86-1.81 1.07-2.66.21a1.79 1.79 0 0 1 2.66-.21z"/><path id="H" d="M106.6 58.11l-3.75 2.14c-.15.74.59.74 1.18 1 4.56 1.77 9.63 2.59 14 4.73l8.24 2.44c12.35 3.77 24.42 8 36.92 11.38 0-.3 2.06.29.44-.81l-25.3-17.74-3.23-2.44-10.22-7.09a7.66 7.66 0 0 0-2.87-1.55l-4.26 2.51c2.72 2.51 2.28 4.51-1.47 5.69a14.62 14.62 0 0 1-9.68-.26z"/></defs></svg>